<svg width="24" height="24" viewBox="0 0 24 24" fill="none" xmlns="http://www.w3.org/2000/svg">
<path fill-rule="evenodd" clip-rule="evenodd" d="M15.1866 14.4716H15.9766L20.2166 18.7316C20.6266 19.1416 20.6266 19.8116 20.2166 20.2216C19.8066 20.6316 19.1366 20.6316 18.7266 20.2216L14.4766 15.9716V15.1816L14.2066 14.9016C12.8066 16.1016 10.8966 16.7216 8.86656 16.3816C6.08656 15.9116 3.86656 13.5916 3.52656 10.7916C3.00656 6.56157 6.56656 3.00157 10.7966 3.52157C13.5966 3.86157 15.9166 6.08157 16.3866 8.86157C16.7266 10.8916 16.1066 12.8016 14.9066 14.2016L15.1866 14.4716ZM5.47656 9.97157C5.47656 12.4616 7.48656 14.4716 9.97656 14.4716C12.4666 14.4716 14.4766 12.4616 14.4766 9.97157C14.4766 7.48157 12.4666 5.47157 9.97656 5.47157C7.48656 5.47157 5.47656 7.48157 5.47656 9.97157Z" fill="white"/>
</svg>
